<?xml version="1.0" encoding="UTF-8"?>
<svg version="1.1" xmlns="http://www.w3.org/2000/svg" width="225" height="225">
<path d="M0 0 C1.33549393 0.00371613 1.33549393 0.00371613 2.69796753 0.00750732 C4.10326721 -0.00015907 4.10326721 -0.00015907 5.53695679 -0.00798035 C8.65009877 -0.02193521 11.76302053 -0.02091369 14.87619019 -0.01861572 C17.04176923 -0.02250242 19.20734751 -0.02683703 21.3729248 -0.03160095 C25.92433127 -0.03907799 30.47566023 -0.03876335 35.02706909 -0.0335083 C40.83499126 -0.02774366 46.64259141 -0.04456441 52.45046043 -0.06785297 C56.93058096 -0.08266042 61.41062548 -0.08345196 65.89076614 -0.08034325 C68.02999122 -0.080854 70.16922084 -0.08604516 72.30842209 -0.09615517 C102.47827883 -0.22111881 102.47827883 -0.22111881 114.41134644 10.91107178 C116.00259045 12.62136148 117.34500938 14.35597469 118.66525269 16.28216553 C119.07904175 16.88029053 119.49283081 17.47841553 119.91915894 18.09466553 C124.53473484 26.32872428 124.21014211 37.73224765 121.73556519 46.62200928 C118.41664429 53.93738226 113.12960331 59.76695801 107.82150269 65.69622803 C104.70732947 69.18631554 101.8298021 72.82687421 98.97775269 76.53216553 C95.12450338 81.51022112 91.09457857 86.23354089 86.83322144 90.87200928 C83.79876608 94.24544883 80.9683704 97.77150699 78.11447144 101.29779053 C75.34714569 104.66977916 72.51378329 107.97881998 69.66525269 111.28216553 C66.11058054 115.40672164 62.59732639 119.55424865 59.16525269 123.78216553 C54.69530697 129.28426235 50.10160703 134.67190852 45.45431519 140.02435303 C43.7827242 141.9553481 42.19181868 143.89345771 40.62619019 145.91497803 C36.51969556 151.14653967 36.51969556 151.14653967 31.72775269 151.90716553 C30.72421753 151.93810303 30.72421753 151.93810303 29.70040894 151.96966553 C25.5922113 152.60048282 22.72270417 155.64518871 19.66525269 158.28216553 C18.72745972 159.02273193 18.72745972 159.02273193 17.77072144 159.77825928 C12.1870295 164.33846389 7.73939673 169.74911125 3.18087769 175.29388428 C1.10330114 177.76181293 -1.01046026 180.05019829 -3.33474731 182.28216553 C-6.95712098 181.40104761 -8.13182841 180.60403689 -10.14724731 177.40716553 C-13.39656838 168.33147565 -11.71713715 157.00831674 -8.30349731 148.2230835 C-5.37330896 142.35236842 -0.41033783 137.66801515 4.08029175 132.97210693 C6.25565591 130.65265673 8.2427508 128.20273565 10.22775269 125.71966553 C13.65453693 121.48657911 17.1703453 117.34263496 20.72775269 113.21966553 C24.1131215 109.29407267 27.45161733 105.35098866 30.66525269 101.28216553 C36.30835537 94.14667205 42.31408392 87.31399375 48.26339722 80.434021 C53.67146235 74.17737194 59.01646482 67.92749599 64.03244019 61.34857178 C66.40571428 58.34507418 68.97425751 55.53163584 71.54415894 52.69622803 C74.73234984 49.06767926 77.70341314 45.2689345 80.68478394 41.46966553 C82.66525269 39.28216553 82.66525269 39.28216553 85.66525269 38.28216553 C85.66525269 37.62216553 85.66525269 36.96216553 85.66525269 36.28216553 C84.80058884 36.38813553 84.80058884 36.38813553 83.91845703 36.49624634 C74.58579261 37.50015141 65.28073311 37.42741688 55.90744019 37.41497803 C54.10951728 37.41565269 52.31159447 37.41662406 50.51367188 37.4178772 C46.77024455 37.41934275 43.02684126 37.41723404 39.28341675 37.41253662 C34.47583069 37.40679854 29.66829997 37.41015108 24.86071587 37.41610909 C21.15998919 37.41971051 17.4592758 37.41857877 13.75854874 37.41598129 C11.98424396 37.41531299 10.20993799 37.41613709 8.43563461 37.41846085 C5.97031152 37.42098492 3.50508058 37.4171522 1.0397644 37.41156006 C0.30323135 37.41358429 -0.4333017 37.41560852 -1.19215393 37.41769409 C-6.22047582 37.39643702 -6.22047582 37.39643702 -7.33474731 36.28216553 C-7.71937332 32.33656497 -7.80514463 28.36772264 -7.95974731 24.40716553 C-8.01130981 23.29212646 -8.06287231 22.1770874 -8.11599731 21.02825928 C-8.15982544 19.95962646 -8.20365356 18.89099365 -8.24880981 17.78997803 C-8.28957642 16.80658447 -8.33034302 15.82319092 -8.37234497 14.80999756 C-8.33474731 12.28216553 -8.33474731 12.28216553 -7.33474731 9.28216553 C-7.52037231 8.10654053 -7.70599731 6.93091553 -7.89724731 5.71966553 C-8.04162231 4.58529053 -8.18599731 3.45091553 -8.33474731 2.28216553 C-5.66190997 -0.39067182 -3.63476678 0.03179235 0 0 Z " fill="#F7FCF9" transform="translate(61.334747314453125,25.71783447265625)"/>
<path d="M0 0 C1.33549393 0.00371613 1.33549393 0.00371613 2.69796753 0.00750732 C4.10326721 -0.00015907 4.10326721 -0.00015907 5.53695679 -0.00798035 C8.65009877 -0.02193521 11.76302053 -0.02091369 14.87619019 -0.01861572 C17.04176923 -0.02250242 19.20734751 -0.02683703 21.3729248 -0.03160095 C25.92433127 -0.03907799 30.47566023 -0.03876335 35.02706909 -0.0335083 C40.83499126 -0.02774366 46.64259141 -0.04456441 52.45046043 -0.06785297 C56.93058096 -0.08266042 61.41062548 -0.08345196 65.89076614 -0.08034325 C68.02999122 -0.080854 70.16922084 -0.08604516 72.30842209 -0.09615517 C102.47827883 -0.22111881 102.47827883 -0.22111881 114.41134644 10.91107178 C116.00259045 12.62136148 117.34500938 14.35597469 118.66525269 16.28216553 C119.07904175 16.88029053 119.49283081 17.47841553 119.91915894 18.09466553 C124.53473484 26.32872428 124.21014211 37.73224765 121.73556519 46.62200928 C118.41664429 53.93738226 113.12960331 59.76695801 107.82150269 65.69622803 C104.70732947 69.18631554 101.8298021 72.82687421 98.97775269 76.53216553 C95.12450338 81.51022112 91.09457857 86.23354089 86.83322144 90.87200928 C83.79876608 94.24544883 80.9683704 97.77150699 78.11447144 101.29779053 C75.34714569 104.66977916 72.51378329 107.97881998 69.66525269 111.28216553 C66.11058054 115.40672164 62.59732639 119.55424865 59.16525269 123.78216553 C54.69530697 129.28426235 50.10160703 134.67190852 45.45431519 140.02435303 C43.7827242 141.9553481 42.19181868 143.89345771 40.62619019 145.91497803 C36.51969556 151.14653967 36.51969556 151.14653967 31.72775269 151.90716553 C31.06130737 151.92392334 30.39486206 151.94068115 29.70822144 151.95794678 C25.63768289 152.60394047 22.75787505 155.7304339 19.66525269 158.28216553 C17.69257574 159.66303939 15.68451427 160.9696455 13.66525269 162.28216553 C15.36567371 158.13802566 18.30674674 155.03833318 21.22775269 151.71966553 C22.32380372 150.45881446 23.41884757 149.1970872 24.51290894 147.93450928 C25.05189819 147.31302002 25.59088745 146.69153076 26.14620972 146.0512085 C28.19660702 143.66336233 30.1845849 141.22801768 32.16525269 138.78216553 C35.59733282 134.55424073 39.1107644 130.40688662 42.66525269 126.28216553 C46.98459541 121.2690178 51.21622546 116.19679038 55.38790894 111.05950928 C58.40945213 107.37457409 61.49561219 103.74648231 64.58175659 100.11566162 C67.46083112 96.72243078 70.29736761 93.29939833 73.10275269 89.84466553 C76.55800352 85.59823024 80.09250337 81.42944701 83.66525269 77.28216553 C88.76266048 71.35864819 93.76476926 65.37039325 98.66525269 59.28216553 C99.13414917 58.70901611 99.60304565 58.1358667 100.08615112 57.54534912 C101.60028757 55.69359454 103.10237381 53.83257673 104.60275269 51.96966553 C105.07591919 51.39474365 105.54908569 50.81982178 106.03659058 50.22747803 C110.88117449 44.15656204 112.19341213 38.72281073 112.04806519 31.10247803 C111.25945447 25.29250928 108.37247643 20.98938927 104.29025269 16.90716553 C97.55074036 12.73508647 92.41243168 11.83759477 84.59909058 11.84979248 C83.61295776 11.83960083 82.62682495 11.82940918 81.61080933 11.81890869 C78.36978418 11.78885177 75.12905497 11.77952375 71.88790894 11.77044678 C69.63345869 11.75359472 67.37901782 11.73544377 65.12458801 11.71604919 C59.20470099 11.66860059 53.28485196 11.63875781 47.36483765 11.61260986 C41.31841533 11.58277855 35.2721238 11.53625699 29.22579956 11.4911499 C17.37235242 11.40517514 5.51887833 11.3378038 -6.33474731 11.28216553 C-6.72384716 9.82753072 -7.09562761 8.36825346 -7.45974731 6.90716553 C-7.66857544 6.09505615 -7.87740356 5.28294678 -8.09255981 4.44622803 C-8.17248169 3.7320874 -8.25240356 3.01794678 -8.33474731 2.28216553 C-5.66190997 -0.39067182 -3.63476678 0.03179235 0 0 Z " fill="#F8FCFA" transform="translate(61.334747314453125,25.71783447265625)"/>
<path d="M0 0 C12.99596103 -0.11607391 25.99179784 -0.20480708 38.98817253 -0.25906086 C45.02355187 -0.28510578 51.0585754 -0.32041127 57.09375 -0.37719727 C62.92281699 -0.431698 68.75154267 -0.46145891 74.58084488 -0.47438622 C76.79992161 -0.48359362 79.01898059 -0.50157349 81.23791122 -0.52865028 C84.35676554 -0.56517986 87.47422642 -0.56993526 90.59326172 -0.56762695 C91.95596947 -0.59459152 91.95596947 -0.59459152 93.34620667 -0.62210083 C100.61051775 -0.56428318 107.10751966 1.53993133 112.62316704 6.44285107 C113.9375 7.9375 113.9375 7.9375 116 11 C116.598125 11.886875 117.19625 12.77375 117.8125 13.6875 C120.26448968 20.52726068 119.70111952 27.27981083 117.03466797 33.9609375 C115.20838767 37.56006281 112.59859251 40.36631748 109.875 43.3125 C108.69671602 44.62783169 107.51963746 45.94424417 106.34375 47.26171875 C105.77011719 47.89899902 105.19648438 48.5362793 104.60546875 49.19287109 C102.4557171 51.61264934 100.40937468 54.10782988 98.375 56.625 C95.13270988 60.62738744 91.83611799 64.57599958 88.5 68.5 C85.14547904 72.44646124 81.82778038 76.41642235 78.5625 80.4375 C74.60556582 85.30049424 70.53564058 90.05700203 66.44384766 94.80615234 C62.64598499 99.22308718 58.94319959 103.70953997 55.26953125 108.23046875 C50.45311061 114.10799411 45.505057 119.87611914 40.58398438 125.66601562 C35.71376238 131.39846226 30.8556099 137.14026888 26.0625 142.9375 C25.37285156 143.77152344 24.68320313 144.60554687 23.97265625 145.46484375 C21.93870361 148.00982059 21.93870361 148.00982059 20.08984375 150.90234375 C17.76286305 154.35149459 15.20477812 157.47065386 12.5 160.625 C11.79037109 161.46417969 11.79037109 161.46417969 11.06640625 162.3203125 C5.88471815 168.40628412 5.88471815 168.40628412 3 171 C2.34 171 1.68 171 1 171 C0.1953125 168.8828125 0.1953125 168.8828125 0 166 C1.54965799 163.70893701 3.01146903 161.87833345 4.875 159.875 C5.90584844 158.71564383 6.93578438 157.55547572 7.96484375 156.39453125 C8.48159668 155.82041504 8.99834961 155.24629883 9.53076172 154.65478516 C11.57607167 152.3511775 13.50681685 149.96252049 15.4375 147.5625 C19.39508188 142.69870975 23.46542446 137.94118769 27.55834961 133.19165039 C30.58945289 129.66701081 33.56985316 126.10960118 36.5 122.5 C40.4337857 117.65403211 44.48447759 112.91901472 48.55859375 108.19140625 C51.58958284 104.66682097 54.56992581 101.10951168 57.5 97.5 C61.4337857 92.65403211 65.48447759 87.91901472 69.55859375 83.19140625 C72.58958284 79.66682097 75.56992581 76.10951168 78.5 72.5 C81.93208635 68.27206753 85.44568514 64.12487739 89 60 C94.0982741 54.07815236 99.1066797 48.09321493 104 42 C104.67289062 41.16210938 105.34578125 40.32421875 106.0390625 39.4609375 C111.32438019 32.78360199 113.59427065 28.76483308 113.4453125 20.05078125 C112.74992892 15.28679377 110.63343872 12.10262772 107 9 C101.65994404 5.63270793 97.15922695 5.55812266 91.04736328 5.56762695 C90.0613765 5.5574353 89.07538971 5.54724365 88.05952454 5.53674316 C84.8130625 5.50664226 81.56689569 5.49735147 78.3203125 5.48828125 C76.064433 5.47143245 73.80856288 5.45328194 71.55270386 5.43388367 C65.62458221 5.38639962 59.69649859 5.35657975 53.76824951 5.33044434 C47.71521496 5.30063093 41.66231139 5.25410321 35.609375 5.20898438 C23.73965187 5.12296928 11.86990177 5.05561585 0 5 C0 3.35 0 1.7 0 0 Z " fill="#91D8B1" transform="translate(55,37)"/>
<path d="M0 0 C13.90859262 -0.14053187 27.8170742 -0.24574732 41.72623253 -0.31087303 C48.18541527 -0.34213613 54.64411979 -0.38451902 61.10302734 -0.45263672 C67.34058941 -0.51800559 73.57769256 -0.55374379 79.81557083 -0.56926346 C82.19096726 -0.58031814 84.56633961 -0.60190557 86.94153976 -0.63438034 C90.27846573 -0.67817449 93.61351479 -0.68392421 96.95068359 -0.68115234 C97.9246106 -0.702724 98.8985376 -0.72429565 99.90197754 -0.746521 C108.16169009 -0.6726697 114.10192349 2.36564113 120.11870384 7.97536659 C127.63678128 15.83947946 129.71030766 23.54019061 129.6003418 34.20361328 C129.03310484 46.59575616 122.08060562 54.56237571 114.15625 63.4140625 C111.04207678 66.90415001 108.16454942 70.54470868 105.3125 74.25 C101.45925069 79.22805559 97.42932589 83.95137536 93.16796875 88.58984375 C90.1335134 91.96328331 87.30311771 95.48934147 84.44921875 99.015625 C81.681893 102.38761363 78.8485306 105.69665446 76 109 C72.44532786 113.12455611 68.9320737 117.27208312 65.5 121.5 C57.89772166 130.85771352 49.97447706 139.95851545 42 149 C40.68 148.34 39.36 147.68 38 147 C39.36266644 142.96194134 41.1409151 140.45631882 44.0625 137.375 C47.26660562 133.91579043 50.34842269 130.41723434 53.3125 126.75 C56.80432874 122.4354891 60.37580835 118.20294472 64 114 C68.32190074 108.98423478 72.55479675 103.90824112 76.73046875 98.76953125 C81.54688939 92.89200589 86.494943 87.12388086 91.41601562 81.33398438 C96.93606106 74.83666949 102.42361167 68.31915649 107.796875 61.69921875 C109.33470768 59.81510106 110.88809511 57.94361935 112.453125 56.08203125 C113.25234375 55.12683594 114.0515625 54.17164063 114.875 53.1875 C115.59429687 52.33542969 116.31359375 51.48335937 117.0546875 50.60546875 C122.31581329 43.55894084 123.75900152 36.61607285 123 28 C121.6858012 21.44014326 118.86792188 15.64527265 114 11 C108.26171286 7.34671451 102.56295987 4.90193558 95.72259521 4.84178162 C94.87568115 4.8319928 94.02876709 4.82220398 93.15618896 4.81211853 C92.23549622 4.80636307 91.31480347 4.8006076 90.36621094 4.79467773 C88.90229919 4.77982834 88.90229919 4.77982834 87.40881348 4.76467896 C84.1840253 4.7330997 80.9592224 4.70832056 77.734375 4.68359375 C75.49806333 4.66302115 73.26175553 4.64202459 71.02545166 4.62062073 C65.14004647 4.56543176 59.25460637 4.51600842 53.36914062 4.46777344 C47.36324965 4.41753528 41.35740936 4.36186128 35.3515625 4.30664062 C23.56775163 4.19909786 11.78389676 4.09764422 0 4 C0 2.68 0 1.36 0 0 Z " fill="#BAE7CE" transform="translate(55,28)"/>
<path d="M0 0 C12.93469477 -0.0926932 25.86931048 -0.16376184 38.80426979 -0.20724869 C44.81055053 -0.22812055 50.81660398 -0.25643146 56.82275391 -0.30175781 C62.61937061 -0.34522898 68.41576872 -0.36914013 74.21253586 -0.37950897 C76.4237347 -0.38689798 78.63492162 -0.40132696 80.84602737 -0.42292023 C83.944001 -0.4519704 87.04107217 -0.45595523 90.13916016 -0.45410156 C91.50941345 -0.47567322 91.50941345 -0.47567322 92.90734863 -0.49768066 C98.44958015 -0.46181372 101.59562714 0.31108966 106 4 C108.76055304 6.90645964 109.43128699 8.88624618 109.4375 12.875 C109.45683594 13.69742188 109.47617188 14.51984375 109.49609375 15.3671875 C108.34946247 21.45245903 103.2944361 26.14544501 99.3125 30.6875 C95.64800656 34.91234074 92.02162276 39.15430464 88.5 43.5 C84.5662143 48.34596789 80.51552241 53.08098528 76.44140625 57.80859375 C73.41041716 61.33317903 70.43007419 64.89048832 67.5 68.5 C64.06791987 72.7279248 60.55448829 76.8752789 57 81 C52.67827137 86.01591689 48.44520804 91.09175299 44.26953125 96.23046875 C39.45311061 102.10799411 34.505057 107.87611914 29.58398438 113.66601562 C28.18019191 115.31833567 26.77726034 116.97137952 25.375 118.625 C24.69014526 119.43251709 24.69014526 119.43251709 23.99145508 120.25634766 C21.05912375 123.72302425 18.17473502 127.22498329 15.3125 130.75 C11.34525848 135.62669942 7.22094569 140.34200816 3 145 C2.01 144.67 1.02 144.34 0 144 C0.47120139 139.3048147 2.26464714 137.22019508 5.5 133.875 C6.42023983 132.9031872 7.33815866 131.92917204 8.25390625 130.953125 C8.71684082 130.46134766 9.17977539 129.96957031 9.65673828 129.46289062 C12.47507352 126.39355861 15.04204095 123.11428501 17.66015625 119.875 C20.19552627 116.75975403 22.77643734 113.68751009 25.375 110.625 C26.06493042 109.81144043 26.06493042 109.81144043 26.76879883 108.98144531 C28.65006097 106.76465269 30.53308 104.54935553 32.41601562 102.33398438 C37.1351961 96.77931966 41.84075049 91.21940075 46.4375 85.5625 C50.39508188 80.69870975 54.46542446 75.94118769 58.55834961 71.19165039 C61.58945289 67.66701081 64.56985316 64.10960118 67.5 60.5 C70.93208169 56.27207328 74.44555505 52.12476016 78 48 C82.3320881 42.97107587 86.59415398 37.89681978 90.7578125 32.7265625 C92.38822905 30.74393053 94.03731085 28.81449581 95.7421875 26.8984375 C96.20157715 26.37330566 96.6609668 25.84817383 97.13427734 25.30712891 C98.42373122 23.83695786 99.72707792 22.37900553 101.03125 20.921875 C103.39102377 17.41967107 104.03818743 15.2197108 104 11 C102.7055954 8.14569463 102.7055954 8.14569463 100 6 C96.79657164 5.24461942 93.6453102 5.30985546 90.36621094 5.34057617 C89.39026978 5.33009247 88.41432861 5.31960876 87.40881348 5.30880737 C84.18367907 5.28001096 80.95961518 5.28635451 77.734375 5.29296875 C75.4980535 5.27985655 73.26174385 5.26455381 71.02545166 5.24714661 C65.13995135 5.20722818 59.25476036 5.1971017 53.36914062 5.19311523 C47.36318538 5.18379677 41.35741287 5.14639126 35.3515625 5.11132812 C23.56771692 5.04668244 11.78400737 5.01349955 0 5 C0 3.35 0 1.7 0 0 Z " fill="#6CCC96" transform="translate(55,47)"/>
<path d="M0 0 C12.7603387 -0.02312121 25.52067245 -0.04091395 38.28102779 -0.05181217 C44.20550715 -0.05704149 50.12997222 -0.06414001 56.05444336 -0.07543945 C61.76672571 -0.08626661 67.47899428 -0.09227647 73.19128609 -0.09487724 C75.37588277 -0.0967318 77.56047865 -0.100353 79.7450695 -0.10573006 C82.79352349 -0.11293821 85.84191979 -0.11399104 88.89038086 -0.11352539 C89.80315796 -0.11712067 90.71593506 -0.12071594 91.65637207 -0.12442017 C97.88594784 -0.11405216 97.88594784 -0.11405216 99 1 C99.54451368 3.65879652 99.43015072 5.34629565 97.92236328 7.63769531 C96.35637679 9.52278649 94.72901626 11.3281545 93.0625 13.125 C91.85555842 14.46896427 90.64983365 15.81402226 89.4453125 17.16015625 C88.85266602 17.8164502 88.26001953 18.47274414 87.64941406 19.14892578 C85.50140748 21.55955129 83.46250117 24.04806128 81.4375 26.5625 C78.02863012 30.77198519 74.53600932 34.89760971 71 39 C67.44542508 43.124643 63.93207702 47.27207904 60.5 51.5 C56.5662143 56.34596789 52.51552241 61.08098528 48.44140625 65.80859375 C45.41041716 69.33317903 42.43007419 72.89048832 39.5 76.5 C36.06791831 80.72792672 32.55444495 84.87523984 29 89 C24.67312448 94.02287309 20.42610315 99.09969686 16.24609375 104.24609375 C12.2063948 109.19911594 8.0992799 114.09626851 4 119 C2.68 118.67 1.36 118.34 0 118 C1.27212813 113.47175115 2.8889953 110.50419537 5.9375 106.9375 C7.14212891 105.51244141 7.14212891 105.51244141 8.37109375 104.05859375 C9.24738808 103.03905583 10.12369037 102.01952476 11 101 C12.37073827 99.38471687 13.73823387 97.76672433 15.10571289 96.14868164 C16.03992841 95.04401391 16.97532523 93.9403442 17.91186523 92.83764648 C20.81174563 89.42117592 23.67097474 85.97565961 26.5 82.5 C31.12552993 76.82096859 35.85467044 71.23407178 40.59716797 65.65283203 C41.97477588 64.02971933 43.34931757 62.4040696 44.72265625 60.77734375 C48.50354314 56.29987029 52.28429268 51.8232196 56.11328125 47.38671875 C61.00984093 41.71141994 65.82076389 36.0294691 70.3671875 30.06640625 C72.74046159 27.06290866 75.30900482 24.24947031 77.87890625 21.4140625 C81.06709716 17.78551373 84.03816046 13.98676897 87.01953125 10.1875 C89 8 89 8 92 7 C92 6.34 92 5.68 92 5 C61.97 5 31.94 5 1 5 C0.67 3.35 0.34 1.7 0 0 Z " fill="#59C588" transform="translate(55,57)"/>
</svg>
