<?xml version="1.0" encoding="UTF-8" standalone="no"?>
<!DOCTYPE svg PUBLIC "-//W3C//DTD SVG 1.1//EN" "http://www.w3.org/Graphics/SVG/1.1/DTD/svg11.dtd">
<svg width="100%" height="100%" viewBox="0 0 3840 200" version="1.1" xmlns="http://www.w3.org/2000/svg" xmlns:xlink="http://www.w3.org/1999/xlink" xml:space="preserve" xmlns:serif="http://www.serif.com/" style="fill-rule:evenodd;clip-rule:evenodd;stroke-linejoin:round;stroke-miterlimit:2;">
    <g transform="matrix(1,0,0,1,0,-2453.68)">
        <g transform="matrix(1,0,0,1,0,2453.68)">
            <g id="waves.svg" transform="matrix(3.2,0,0,1.66667,1920,100)">
                <g transform="matrix(1,0,0,1,-600,-60)">
                    <path d="M321.39,56.44C379.39,45.65 435.55,26.31 493.39,14.58C575.78,-2.14 661.58,-3.15 743.84,14.19C823.78,31 906.67,72 985.66,92.83C1055.71,111.31 1132.19,118.92 1200,95.83L1200,0L0,0L0,27.35C102.457,66.201 213.623,76.263 321.39,56.44Z" style="fill-rule:nonzero;"/>
                </g>
            </g>
        </g>
    </g>
</svg>
